<?xml version="1.0" encoding="utf-8"?>
<!-- Generator: Adobe Illustrator 28.0.0, SVG Export Plug-In . SVG Version: 6.00 Build 0)  -->
<svg version="1.1" id="Layer_1" xmlns="http://www.w3.org/2000/svg" xmlns:xlink="http://www.w3.org/1999/xlink" x="0px" y="0px"
	 viewBox="0 0 3666.7 588.2" style="enable-background:new 0 0 3666.7 588.2;" xml:space="preserve">
<style type="text/css">
	.st0{fill:#FFFFFF;}
	.st1{fill:#0CDA02;}
</style>
<g>
	<path class="st0" d="M921.1,237.8v46.1h172.2v56.5H921.1v105.9h-71.5v-265h253.2v56.5H921.1z"/>
	<path class="st0" d="M1506.8,313.9c0,22.8-4.2,42.8-12.5,60.3c-8.4,17.4-20.3,32-35.9,43.7c-15.6,11.7-34.4,20.5-56.6,26.5
		c-22.2,6-47.1,9-74.7,9c-27.6,0-52.6-3-74.9-9c-22.3-6-41.3-14.8-57-26.5c-15.7-11.7-27.8-26.3-36.3-43.7
		c-8.5-17.4-12.7-37.5-12.7-60.3c0-22.8,4.2-42.8,12.7-60.3c8.5-17.4,20.6-32,36.3-43.7c15.7-11.7,34.7-20.5,57-26.5
		c22.3-6,47.3-9,74.9-9c27.6,0,52.6,3,74.7,9s41,14.8,56.6,26.5c15.6,11.7,27.5,26.3,35.9,43.7
		C1502.6,271.1,1506.8,291.2,1506.8,313.9z M1434.4,313.9c0-9.9-1.6-19.8-4.7-29.6c-3.2-9.8-8.7-18.7-16.8-26.5
		c-8-7.8-19-14.2-32.9-19.1c-13.9-4.9-31.6-7.3-53-7.3c-14.4,0-27.1,1.1-38,3.4c-10.9,2.2-20.4,5.4-28.3,9.4c-8,4-14.7,8.6-20.1,14
		c-5.4,5.3-9.7,11.1-12.9,17.2c-3.2,6.1-5.5,12.5-6.8,19.1c-1.3,6.6-2,13.1-2,19.6c0,6.6,0.7,13.2,2,19.9c1.4,6.7,3.6,13.1,6.8,19.2
		c3.2,6.1,7.5,11.8,12.9,17.1c5.4,5.3,12.1,9.9,20.1,13.8s17.4,7,28.3,9.3c10.9,2.2,23.6,3.4,38,3.4c21.5,0,39.1-2.4,53-7.3
		c13.9-4.9,24.8-11.2,32.9-19.1c8-7.8,13.6-16.7,16.8-26.5C1432.9,333.7,1434.4,323.8,1434.4,313.9z"/>
	<path class="st0" d="M1643.5,446.2h-71.5v-265h179.3c19.3,0,35.6,2,49.1,6c13.4,4,24.4,9.6,32.8,17c8.4,7.3,14.5,16.2,18.3,26.5
		c3.8,10.4,5.7,21.9,5.7,34.6c0,11.2-1.6,21-4.7,29.3c-3.1,8.4-7.4,15.5-12.7,21.5c-5.3,6-11.5,11-18.6,15.1
		c-7.1,4.1-14.5,7.5-22.4,10.2l86.8,104.7h-83.7l-80.2-97.6h-78.1V446.2z M1784.8,265c0-5.1-0.7-9.5-2-13.1c-1.3-3.6-3.7-6.5-7-8.8
		c-3.3-2.2-7.8-3.9-13.4-4.9c-5.6-1-12.6-1.5-20.9-1.5h-98v56.7h98c8.4,0,15.3-0.5,20.9-1.5c5.6-1,10.1-2.7,13.4-4.9
		c3.3-2.2,5.7-5.2,7-8.8C1784.2,274.5,1784.8,270.1,1784.8,265z"/>
	<path class="st0" d="M2085.3,238.9v207.3h-71.5V238.9h-112.4v-57.7h296.6v57.7H2085.3z"/>
	<path class="st0" d="M2582,446.2V260.1l-98.3,186.1H2415l-98.4-186.1v186.1h-71.5v-265h97.2l107,200.6l107-200.6h96.8v265H2582z"/>
	<path class="st0" d="M2736.1,446.2v-265h71.5v265H2736.1z"/>
	<path class="st0" d="M3140.9,446.2l-178.8-182v182h-71.5v-265h77.7l179,182.8V181.3h71.2v265H3140.9z"/>
	<path class="st0" d="M3625.9,313.6c0,17-1.9,32-5.6,45.2c-3.7,13.2-9,24.7-15.7,34.4s-14.8,18.1-24.3,24.9
		c-9.4,6.8-20,12.3-31.5,16.4c-11.6,4.1-24,7.1-37.4,9c-13.4,1.9-27.3,2.8-41.8,2.8h-168.2v-265h167.8c14.5,0,28.5,0.9,41.8,2.8
		c13.4,1.9,25.9,4.9,37.5,9c11.6,4.1,22.2,9.5,31.7,16.3c9.5,6.8,17.6,15,24.4,24.9c6.8,9.8,12,21.3,15.7,34.4
		C3624,281.7,3625.9,296.7,3625.9,313.6z M3553.8,313.6c0-12.7-1.6-23.8-4.9-33.2c-3.3-9.4-8.6-17.1-15.8-23.2
		c-7.3-6.1-16.7-10.7-28.4-13.7c-11.7-3-26-4.5-42.8-4.5h-88.9v149.6h88.9c16.8,0,31.1-1.5,42.8-4.5c11.7-3,21.2-7.6,28.4-13.9
		c7.3-6.2,12.5-14,15.8-23.4C3552.1,337.3,3553.8,326.3,3553.8,313.6z"/>
</g>
<g>
	<path class="st1" d="M365.8,187L33.6,50.6L326,253.6c33.2,23.1,58.3,61.4,69.9,107.3L441.6,540l45.7-179.2
		C499,315,524,276.6,557.2,253.6L849.6,50.6L517.5,187C468.1,207.2,415.1,207.2,365.8,187z"/>
	<polygon class="st1" points="441.6,79 310,79 441.6,128 573.3,79 	"/>
</g>
</svg>
